{"title":"MOHENJO DARO (2016) x264 DVDSCR Rip 720p","uid":15578191,"size":1467806357,"categoryP":"video","categoryS":"other","magnet":"?xt=urn:btih:eb03418b7f10c8eb70c57b58ee9607d1a9d4922a&amp;dn=MOHENJO+DARO+%282016%29+x264+DVDSCR+Rip+720p&amp;tr=udp%3A%2F%2Ftracker.leechers-paradise.org%3A6969&amp;tr=udp%3A%2F%2Fzer0day.ch%3A1337&amp;tr=udp%3A%2F%2Fopen.demonii.com%3A1337&amp;tr=udp%3A%2F%2Ftracker.coppersurfer.tk%3A6969&amp;tr=udp%3A%2F%2Fexodus.desync.com%3A6969","seeders":1,"leechers":0,"uploader":"meen.crse","files":1,"time":1471368192,"description":"MOHENJO DARO (2016) x264 DVDSCR Rip 720p\r\n\r\n\r\nVideo\r\nFormat : AVC\r\nFormat/Info : Advanced Video Codec\r\nFormat profile :   \r\nFormat settings, CABAC : Yes\r\nFormat settings, ReFrames : 8 frames\r\nCodec ID : V_MPEG4/ISO/AVC\r\nDuration : 2h 34mn\r\nBit rate : 1 131 Kbps\r\nWidth : 720 pixels\r\nHeight : 304 pixels\r\nDisplay aspect ratio : 2.35:1\r\nFrame rate mode : Constant\r\nFrame rate : 25.000 fps\r\ncolor space : YUV\r\nChroma subsampling : 4:2:0\r\nBit depth : 8 bits\r\nScan type : Progressive\r\nBits/(Pixel*Frame) : 0.207\r\nStream size : 1.23 GiB (90%)\r\n\r\n\r\n\r\nAudio\r\nFormat : AAC\r\nFormat/Info : Advanced Audio Codec\r\nFormat profile : LC\r\nCodec ID : A_AAC\r\nDuration : 2h 34mn\r\nBit rate : 128 Kbps\r\nChannel(s) : 2 channels\r\nChannel positions : Front: L R\r\nSampling rate : 48.0 KHz\r\nFrame rate : 46.875 fps (1024 spf)\r\nCompression mode : Lossy\r\nDelay relative to video : 9ms\r\nStream size : 142 MiB (10%)\r\nDefault : Yes\r\nForced : No","torrent":{"xt":"urn:btih:eb03418b7f10c8eb70c57b58ee9607d1a9d4922a","amp;dn":"MOHENJO+DARO+%282016%29+x264+DVDSCR+Rip+720p","amp;tr":["udp%3A%2F%2Ftracker.leechers-paradise.org%3A6969","udp%3A%2F%2Fzer0day.ch%3A1337","udp%3A%2F%2Fopen.demonii.com%3A1337","udp%3A%2F%2Ftracker.coppersurfer.tk%3A6969","udp%3A%2F%2Fexodus.desync.com%3A6969"],"infoHash":"eb03418b7f10c8eb70c57b58ee9607d1a9d4922a","infoHashBuffer":{"type":"Buffer","data":[235,3,65,139,127,16,200,235,112,197,123,88,238,150,7,209,169,212,146,42]},"announce":[],"urlList":[]}}